<?xml version="1.0" encoding="UTF-8"?>
<svg version="1.1" xmlns="http://www.w3.org/2000/svg" width="500" height="500">
<path d="M0 0 C23.79283849 -0.07030063 47.58566126 -0.12309084 71.37858295 -0.15543652 C82.42779846 -0.17085907 93.47694916 -0.19185968 104.52612305 -0.22631836 C114.16448981 -0.2563627 123.8028096 -0.27560845 133.44122189 -0.28226548 C138.53750153 -0.28615244 143.63364689 -0.29518946 148.72988319 -0.31719017 C153.54220034 -0.33779375 158.35432994 -0.34378643 163.16668701 -0.33932304 C164.91801669 -0.34013771 166.66935369 -0.34595944 168.42064476 -0.35761642 C184.26330601 -0.45775407 199.54110979 1.61476375 214.9375 5.375 C215.81954102 5.58995117 216.70158203 5.80490234 217.61035156 6.02636719 C224.39974164 7.73934406 230.72038189 9.86826243 237 13 C238.01368652 13.50370117 238.01368652 13.50370117 239.04785156 14.01757812 C241.33222088 15.1622512 243.60553374 16.3260714 245.875 17.5 C246.94669434 18.05155762 246.94669434 18.05155762 248.04003906 18.61425781 C252.52278337 20.99788913 256.20123946 23.62995672 260 27 C261.01707031 27.86044922 261.01707031 27.86044922 262.0546875 28.73828125 C264.05723178 30.4700953 266.03413315 32.22664742 268 34 C269.01126953 34.91072266 269.01126953 34.91072266 270.04296875 35.83984375 C275.44856578 40.95268117 279.23940849 46.60699444 283 53 C283.37898438 53.61746094 283.75796875 54.23492187 284.1484375 54.87109375 C300.19108752 81.63023398 302.69845134 113.55829032 295.64599609 143.47949219 C291.3300047 160.31936186 283.53815638 179.40698103 270 191 C269.34 191 268.68 191 268 191 C267.79503906 191.72316406 267.59007812 192.44632813 267.37890625 193.19140625 C265.61624702 196.78163851 263.0997936 198.64791875 259.9375 200.9375 C259.3504126 201.37352539 258.7633252 201.80955078 258.15844727 202.25878906 C256.44865156 203.51989505 254.72701328 204.76262002 253 206 C252.195625 206.58394531 251.39125 207.16789063 250.5625 207.76953125 C244.71038507 211.84664809 238.41320975 214.91023498 232 218 C229.99860725 218.99720963 227.99822065 219.99644919 226 221 C230.18876279 227.43002289 234.44311901 233.71360894 239.21875 239.7265625 C243.84518606 245.63135589 248.16190813 251.77590802 252.4375 257.9375 C255.81273398 262.78795067 259.35622192 267.50230244 262.91015625 272.22265625 C270 281.64485981 270 281.64485981 270 284 C270.66 284 271.32 284 272 284 C273.4088974 285.84037223 274.72840298 287.74971704 276 289.6875 C276.70125 290.74324219 277.4025 291.79898437 278.125 292.88671875 C280 296 280 296 281.0625 298.83203125 C281.5265625 299.90517578 281.5265625 299.90517578 282 301 C282.99 301.33 283.98 301.66 285 302 C286.68130525 304.30444635 288.22942768 306.59358172 289.75 309 C293.57684421 314.90401511 297.59482048 320.50996284 302 326 C306.01736475 331.1791432 309.75596078 336.52642742 313.46557617 341.92944336 C317.95556074 348.43668098 322.71037095 354.74674224 327.546875 361 C332.72449633 367.74836038 337.32276998 374.90096313 342 382 C341.67 382.66 341.34 383.32 341 384 C332.01182814 384.25553016 323.02491631 384.45063883 314.0338974 384.56993389 C309.85820228 384.62720979 305.68500144 384.70479668 301.51074219 384.82983398 C297.47750123 384.94988292 293.44664868 385.0152269 289.41175842 385.04364967 C287.87730802 385.06388546 286.34298025 385.10340946 284.80955505 385.16303062 C272.81653781 385.61053418 272.81653781 385.61053418 268.33129883 381.63394165 C266.27697487 378.83986859 264.61548326 376.06417499 263 373 C262.01684447 371.50958421 261.02001917 370.02793336 260 368.5625 C258.99907381 367.04227608 257.99913116 365.52140427 257 364 C255.7512532 362.12416514 254.50115467 360.2492297 253.25 358.375 C229.859375 323.2890625 229.859375 323.2890625 228.44555664 321.16723633 C227.44087169 319.66097247 226.43474404 318.1556703 225.42749023 316.65112305 C222.75309257 312.65260988 220.11399571 308.64107544 217.5625 304.5625 C215.33207699 301.03872447 213.03883823 297.58805732 210.625 294.1875 C207.38143694 289.61305792 204.3568103 284.92116611 201.34960938 280.19018555 C199.03099283 276.55765316 196.62964581 273.00861775 194.125 269.5 C188 260.85962877 188 260.85962877 188 257 C187.43152344 256.81953125 186.86304688 256.6390625 186.27734375 256.453125 C182.92794833 254.31594645 181.44626531 251.14012687 179.5625 247.75 C175.43838146 240.38929204 175.43838146 240.38929204 170 234 C166.88842361 233.2804908 166.88842361 233.2804908 163.6875 233.625 C162.08455078 233.70621094 162.08455078 233.70621094 160.44921875 233.7890625 C159.23685547 233.89347656 159.23685547 233.89347656 158 234 C159.86641907 239.48456106 161.80254856 244.80148564 164.5 249.9375 C166.8693751 254.5028813 168.42587821 259.13539551 169.984375 264.02734375 C171.24729663 267.72381822 172.86232202 271.175887 174.5234375 274.70703125 C176.44079084 278.98303353 178.15447172 283.32929218 179.875 287.6875 C182.30121807 293.82751437 184.79978257 299.91298389 187.5 305.9375 C190.68880666 313.06115643 193.46614352 320.32027809 196.16015625 327.64428711 C197.8906345 332.29986354 199.80047125 336.71938931 202.07788086 341.13183594 C203.51634116 344.04607958 204.58856554 347.06910416 205.6875 350.125 C207.48446025 355.07644943 209.38224425 359.967011 211.421875 364.82421875 C211.83735596 365.81599121 212.25283691 366.80776367 212.6809082 367.82958984 C213.51015922 369.79807419 214.34708819 371.76334396 215.19213867 373.72509766 C215.57088135 374.62663574 215.94962402 375.52817383 216.33984375 376.45703125 C216.68394287 377.26116455 217.02804199 378.06529785 217.38256836 378.89379883 C218 381 218 381 217 384 C192.91 384 168.82 384 144 384 C139.43703784 373.73333513 135.13494013 363.45538139 131.23095703 352.92578125 C129.3659279 347.91732377 127.36491714 342.98058952 125.28125 338.05859375 C123.54527041 333.91447173 121.8899809 329.73906997 120.23046875 325.56396484 C118.69540451 321.711544 117.11664638 317.88130893 115.5 314.0625 C113.25471675 308.72002539 111.21166733 303.3142603 109.23046875 297.86938477 C107.65456742 293.58326145 105.87784503 289.4250941 104.00219727 285.26196289 C102.40243008 281.65128251 100.95257522 277.98433051 99.5 274.3125 C98.80741713 272.57156467 98.11469952 270.83068293 97.421875 269.08984375 C96.85243164 267.65680908 96.85243164 267.65680908 96.27148438 266.19482422 C94.03733762 260.58114441 91.79071273 254.97245114 89.5456543 249.36312866 C88.27478893 246.18757381 87.00461338 243.0117432 85.734375 239.8359375 C85.26580078 238.66530762 84.79722656 237.49467773 84.31445312 236.28857422 C83.49316176 234.23382039 82.67382262 232.17828391 81.85742188 230.12158203 C79.98762811 225.41605265 78.04440994 220.75825515 76 216.125 C74.09069031 211.71301119 72.39201009 207.33141234 70.9375 202.75 C69.74788527 199.01893562 68.39707571 195.64584613 66.5625 192.1875 C63.83297219 186.99555414 62.12289376 181.58912933 60.40625 176.00390625 C59.3575445 172.80885016 58.03231729 169.80756716 56.6171875 166.7578125 C53.97013302 161.04685613 51.77503366 155.22509256 49.625 149.3125 C46.78299904 141.5967167 43.78579806 134.023866 40.38769531 126.5378418 C38.41928377 122.13776124 36.83157791 117.71080047 35.375 113.125 C33.68625865 107.82391788 31.71219401 103.01250185 29.015625 98.1484375 C27.89584073 95.77966308 27.41617157 93.57845431 27 91 C26.34 91 25.68 91 25 91 C24.84144531 91.59425781 24.68289062 92.18851562 24.51953125 92.80078125 C22.94611542 98.39031924 20.9303862 103.49658275 18.45703125 108.7421875 C16.63498712 112.81614141 15.03423554 116.95860458 13.4375 121.125 C9.85009408 130.48104616 9.85009408 130.48104616 7.9375 134.625 C6.12386256 138.56869674 4.62584311 142.61732801 3.125 146.6875 C0.77713775 153.04799146 -1.78715609 159.27897573 -4.49609375 165.49609375 C-6.34981071 169.81501353 -8.09048478 174.173261 -9.82250977 178.54199219 C-11.32091833 182.31663159 -12.85832647 186.07099408 -14.4375 189.8125 C-16.55848546 194.85921781 -18.53622911 199.95332711 -20.5 205.0625 C-22.76640039 210.95318459 -25.13509676 216.74735027 -27.859375 222.4453125 C-28.85056998 224.66531769 -29.72407137 226.8823723 -30.57128906 229.15966797 C-30.97350677 230.23883987 -30.97350677 230.23883987 -31.3838501 231.33981323 C-31.58717957 231.88767487 -31.79050903 232.4355365 -32 233 C-30.91671921 232.98889694 -29.83343842 232.97779388 -28.71733093 232.96635437 C-18.52007022 232.86509867 -8.32291118 232.7900925 1.87473774 232.74093914 C7.11779506 232.71481938 12.36044732 232.67937777 17.60327148 232.62280273 C22.66073283 232.56856803 27.71780403 232.5385974 32.77553368 232.52561378 C34.70733981 232.51635854 36.63912403 232.49828544 38.57076454 232.47134972 C41.27201489 232.43517239 43.971643 232.43004982 46.6730957 232.43237305 C47.87718834 232.40540848 47.87718834 232.40540848 49.10560608 232.37789917 C51.33638 232.39872742 51.33638 232.39872742 55 233 C57.28962049 235.79781212 58.3821361 238.64912664 59.4296875 242.08203125 C59.6654248 242.84185303 59.90116211 243.6016748 60.14404297 244.38452148 C60.38525879 245.18575439 60.62647461 245.9869873 60.875 246.8125 C61.39571113 248.50785004 61.91654668 250.20316187 62.4375 251.8984375 C62.69660156 252.74889648 62.95570313 253.59935547 63.22265625 254.47558594 C63.96255426 256.87839543 64.72558435 259.27218346 65.5 261.6640625 C65.73219238 262.3861792 65.96438477 263.1082959 66.20361328 263.85229492 C66.64090816 265.2104533 67.08181002 266.56745728 67.52685547 267.9230957 C68.56090024 271.17105685 69 273.5366931 69 277 C63.25385125 278.23270227 57.60724799 278.13346776 51.76220703 278.11352539 C50.63967026 278.11367142 49.51713348 278.11381744 48.36058044 278.1139679 C44.65963797 278.11327265 40.95874616 278.10549837 37.2578125 278.09765625 C34.68805977 278.09579069 32.11830668 278.09436744 29.54855347 278.09336853 C23.48198853 278.08994381 17.41544442 278.08206668 11.34888732 278.07201904 C4.4395714 278.06082505 -2.4697454 278.05533918 -9.37906814 278.05032361 C-23.58605513 278.03988315 -37.79302692 278.02230422 -52 278 C-52.14882126 278.77804489 -52.29764252 279.55608978 -52.45097351 280.35771179 C-52.98398023 282.922902 -53.73508067 285.15331218 -54.70703125 287.58203125 C-55.04669922 288.43216797 -55.38636719 289.28230469 -55.73632812 290.15820312 C-56.2690332 291.47208008 -56.2690332 291.47208008 -56.8125 292.8125 C-57.15603516 293.67681641 -57.49957031 294.54113281 -57.85351562 295.43164062 C-59.45440548 299.41133866 -61.10942354 303.30467012 -63.078125 307.1171875 C-65.43209367 311.70907194 -67.00307626 316.49325573 -68.62304688 321.38085938 C-70.34584979 326.44599382 -72.44331867 331.24768764 -74.69067383 336.10131836 C-76.92180503 341.04075911 -78.88697385 346.08394773 -80.875 351.125 C-81.74537762 353.31799269 -82.61647483 355.51069992 -83.48828125 357.703125 C-83.91189941 358.76853516 -84.33551758 359.83394531 -84.77197266 360.93164062 C-86.78387824 365.95860472 -88.85003952 370.96277762 -90.93115234 375.96142578 C-92.03695544 378.62394859 -93.08783515 381.26350545 -94 384 C-114.79 384 -135.58 384 -157 384 C-158.33941932 379.98174204 -156.98093012 377.51456988 -155.5 373.75 C-155.22808838 373.04125732 -154.95617676 372.33251465 -154.67602539 371.60229492 C-152.52396276 366.09470152 -150.08341741 360.7531158 -147.53271484 355.42114258 C-145.24833206 350.62067353 -143.30547202 345.75810064 -141.4453125 340.78125 C-136.64649026 328.05977721 -131.25498668 315.53821383 -126 303 C-122.44883648 294.52096529 -122.44883648 294.52096529 -119 286 C-116.13329127 278.79855024 -113.2057898 271.62040819 -110 264.5625 C-108.3509789 260.90539675 -106.91515919 257.19112346 -105.5 253.4375 C-104.13415695 249.82866699 -102.7477243 246.34498104 -100.9375 242.9375 C-98.78215922 238.82510979 -97.47078856 234.51412418 -96.046875 230.10546875 C-94.30911472 224.95054554 -92.15233224 219.99319394 -90 215 C-89.28482635 213.33217267 -88.5700124 211.66419108 -87.85546875 209.99609375 C-86.67343485 207.23743631 -85.4909701 204.47896902 -84.30688477 201.72119141 C-81.87183311 196.04773004 -79.46079844 190.36565541 -77.1015625 184.66015625 C-76.35308645 182.85266622 -75.59761914 181.0480587 -74.8359375 179.24609375 C-71.03611723 170.23684247 -67.51715087 161.12229333 -64 152 C-63.34 152 -62.68 152 -62 152 C-61.773125 150.7625 -61.54625 149.525 -61.3125 148.25 C-59.60751082 140.66573776 -56.23414315 133.75266541 -53.0703125 126.6875 C-52.38011176 125.14587657 -51.69000925 123.60420915 -51 122.0625 C-50.65549805 121.29405762 -50.31099609 120.52561523 -49.95605469 119.73388672 C-47.06263702 113.23815028 -44.48743161 106.66207459 -42 100 C-41.33805854 98.33145101 -40.67293346 96.66414626 -40 95 C-39.34 95 -38.68 95 -38 95 C-37.62101562 93.07414062 -37.62101562 93.07414062 -37.234375 91.109375 C-36.07904747 85.92458934 -34.27164636 81.15146682 -32.25 76.25 C-31.89437988 75.37384033 -31.53875977 74.49768066 -31.17236328 73.5949707 C-28.75454591 67.68951968 -26.15875485 61.90073322 -23.4296875 56.1328125 C-21.55781589 52.03106105 -19.90090994 47.85372119 -18.25170898 43.65942383 C-16.5583069 39.36206359 -14.77656795 35.11285222 -12.9375 30.875 C-10.52498421 25.3003878 -8.31635269 19.67145644 -6.1640625 13.9921875 C-4.31424992 9.23730014 -2.28196868 4.56393735 0 0 Z M81 42 C81.20586731 42.61515472 81.41173462 43.23030945 81.62384033 43.86410522 C81.89395935 44.6725589 82.16407837 45.48101257 82.44238281 46.31396484 C82.71012512 47.11474457 82.97786743 47.91552429 83.25372314 48.74057007 C83.82821938 50.4799165 84.37995182 52.2267936 84.921875 53.9765625 C86.91706665 60.35741128 89.47029217 66.33871552 92.35791016 72.35522461 C94.78469582 77.44081588 96.84801924 82.6121768 98.82421875 87.890625 C101.19219151 94.15277222 103.82139749 100.30997716 106.5078125 106.44140625 C108.93184874 111.98989122 111.22692807 117.47683022 113.0625 123.25 C114.55817417 127.94182435 116.50605586 132.10548223 118.7890625 136.45703125 C120.07523659 139.15799685 120.98322952 141.83307226 121.875 144.6875 C123.57980124 150.06999747 125.83673573 155.06545075 128.28588867 160.13574219 C130.81330846 165.43514899 132.91454731 170.83610846 134.87060547 176.37011719 C136.57211662 181.11754336 138.68258139 185.51899571 141 190 C163.69786239 190.61274941 163.69786239 190.61274941 186 187 C186.90878906 186.80664062 187.81757813 186.61328125 188.75390625 186.4140625 C196.17262831 184.62613887 201.87177726 180.4006312 208 176 C208.76441406 175.484375 209.52882813 174.96875 210.31640625 174.4375 C211.91870336 173.34988015 213.46762742 172.18410609 215 171 C215 170.34 215 169.68 215 169 C215.66 169 216.32 169 217 169 C218.25835264 167.30900174 218.25835264 167.30900174 219.4375 165.1875 C221.7091975 161.27790148 221.7091975 161.27790148 223.47485352 159.59057617 C234.0515011 148.56018414 235.2590876 125.69032214 235.07788086 111.29492188 C234.59896495 97.18266611 229.8961782 84.66586429 224 72 C223.34 72 222.68 72 222 72 C221.58234375 71.12794922 221.58234375 71.12794922 221.15625 70.23828125 C217.06638649 62.32107926 211.45097645 57.69543782 204 53 C203.16984375 52.45085937 202.3396875 51.90171875 201.484375 51.3359375 C195.83416393 47.72904176 190.49340717 45.57065906 184 44 C183.28873459 43.81760773 182.57746918 43.63521545 181.84465027 43.44729614 C171.95364577 41.27436199 161.86792808 41.7504675 151.80078125 41.8046875 C149.75384154 41.80842355 147.70690003 41.81126772 145.65995789 41.81326294 C140.3055822 41.82085282 134.9513172 41.84046081 129.59698486 41.8626709 C124.12001034 41.88323004 118.64301772 41.89228607 113.16601562 41.90234375 C102.44396212 41.92371157 91.72199031 41.95779064 81 42 Z " fill="#F6F6F6" transform="translate(158,58)"/>
<path d="M0 0 C11.27597483 -0.07002067 22.55189653 -0.1230724 33.82804585 -0.15543652 C39.06602562 -0.17098258 44.30385486 -0.19201441 49.54174805 -0.22631836 C54.61222465 -0.25931177 59.68255797 -0.27693575 64.75313377 -0.28463173 C66.671676 -0.29010448 68.59021188 -0.30078714 70.50869179 -0.31719017 C103.13838583 -0.58465681 103.13838583 -0.58465681 117 7 C115 8 115 8 113.00390625 7.51171875 C111.39970927 6.97014185 109.79554171 6.42847784 108.19140625 5.88671875 C96.44188302 2.62216334 84.90513201 2.65621184 72.80078125 2.5859375 C70.75383241 2.56720077 68.70689109 2.54762554 66.65995789 2.5272522 C61.3056789 2.47618952 55.95137494 2.43642624 50.59698486 2.39910889 C45.11993362 2.35890605 39.64298392 2.30788842 34.16601562 2.2578125 C23.44408202 2.16135992 12.72209073 2.07685812 2 2 C2.78354003 3.88424524 3.56747158 5.76832768 4.3515625 7.65234375 C4.78807129 8.70156006 5.22458008 9.75077637 5.67431641 10.83178711 C7.2277391 14.54426708 8.80804172 18.2446466 10.3984375 21.94140625 C11 24 11 24 10 27 C7.12207815 21.48189767 4.77232366 16.00624737 2.75 10.125 C2.481875 9.36703125 2.21375 8.6090625 1.9375 7.828125 C0 2.27264031 0 2.27264031 0 0 Z " fill="#2D2D2D" transform="translate(237,98)"/>
<path d="M0 0 C0.66 0 1.32 0 2 0 C2 0.66 2 1.32 2 2 C3.62492119 1.98334541 3.62492119 1.98334541 5.28266907 1.96635437 C15.47992978 1.86509867 25.67708882 1.7900925 35.87473774 1.74093914 C41.11779506 1.71481938 46.36044732 1.67937777 51.60327148 1.62280273 C56.66073283 1.56856803 61.71780403 1.5385974 66.77553368 1.52561378 C68.70733981 1.51635854 70.63912403 1.49828544 72.57076454 1.47134972 C75.27201489 1.43517239 77.971643 1.43004982 80.6730957 1.43237305 C81.87718834 1.40540848 81.87718834 1.40540848 83.10560608 1.37789917 C85.33638 1.39872742 85.33638 1.39872742 89 2 C90.9657135 4.39793396 90.9657135 4.39793396 92 7 C92.28891113 7.72622559 92.57782227 8.45245117 92.87548828 9.20068359 C93.10478027 9.92594238 93.33407227 10.65120117 93.5703125 11.3984375 C93.82683594 12.20796875 94.08335937 13.0175 94.34765625 13.8515625 C94.60417969 14.68429687 94.86070312 15.51703125 95.125 16.375 C95.38925781 17.2 95.65351563 18.025 95.92578125 18.875 C97.39948013 23.58784412 98.45749511 28.09099232 99 33 C93.18203464 24.27305196 91.52812645 14.11250581 89 4 C59.63 4 30.26 4 0 4 C0 2.68 0 1.36 0 0 Z " fill="#696A69" transform="translate(124,289)"/>
<path d="M0 0 C0.66 0 1.32 0 2 0 C2.8394882 2.10171867 3.67139656 4.20646625 4.5 6.3125 C4.9640625 7.48425781 5.428125 8.65601563 5.90625 9.86328125 C7 13 7 13 7 16 C7.66 16 8.32 16 9 16 C10.5945962 20.23226557 12.17922815 24.46807482 13.75463867 28.70751953 C14.29226042 30.14995106 14.83261725 31.59136619 15.37573242 33.03173828 C16.15479984 35.09929071 16.92403889 37.17026888 17.69140625 39.2421875 C18.06006554 40.21102371 18.06006554 40.21102371 18.43617249 41.19943237 C19.01584085 42.77940661 19.51543804 44.3883134 20 46 C19.67 46.66 19.34 47.32 19 48 C15.66751664 41.20906312 12.71591614 34.51722131 10.4375 27.3125 C8.72643943 21.94674696 6.74508629 17.07183287 4.015625 12.1484375 C2.89584073 9.77966308 2.41617157 7.57845431 2 5 C1.34 5 0.68 5 0 5 C-0.29003906 6.06541016 -0.29003906 6.06541016 -0.5859375 7.15234375 C-0.84632813 8.07144531 -1.10671875 8.99054688 -1.375 9.9375 C-1.63023437 10.85402344 -1.88546875 11.77054688 -2.1484375 12.71484375 C-3 15 -3 15 -5 16 C-4.34309381 12.21760329 -3.279869 8.78158474 -1.9375 5.1875 C-1.57527344 4.21167969 -1.21304688 3.23585937 -0.83984375 2.23046875 C-0.42412109 1.12638672 -0.42412109 1.12638672 0 0 Z " fill="#424243" transform="translate(183,144)"/>
<path d="M0 0 C2.77245014 -0.13487595 5.53837088 -0.23400807 8.3125 -0.3125 C9.49102539 -0.3753418 9.49102539 -0.3753418 10.69335938 -0.43945312 C12.89968244 -0.48639617 14.84372587 -0.47604561 17 0 C18.91796875 2.39453125 18.91796875 2.39453125 20 5 C20.66 5.66 21.32 6.32 22 7 C21.01 7 20.02 7 19 7 C18.525625 6.175 18.05125 5.35 17.5625 4.5 C14.35418157 1.36993324 13.12366843 1.66180277 8.75 1.6875 C6.83218481 1.76779131 4.91470844 1.86452535 3 2 C3.99 5.63 4.98 9.26 6 13 C3.19438607 11.59719304 2.99319493 9.9490995 1.875 7.0625 C1.52179688 6.16660156 1.16859375 5.27070313 0.8046875 4.34765625 C0 2 0 2 0 0 Z " fill="#444444" transform="translate(313,290)"/>
<path d="M0 0 C0.77333463 2.25974404 1.1415176 3.56074406 0.3984375 5.8671875 C0.06070313 6.52976563 -0.27703125 7.19234375 -0.625 7.875 C-3.12328985 13.05249035 -4.87801407 18.40241484 -6.65625 23.86328125 C-8.02442569 27.05701695 -9.38683701 28.75777328 -12 31 C-9.26417109 20.39540605 -5.10623183 9.70438089 0 0 Z " fill="#4B4B4B" transform="translate(108,178)"/>
<path d="M0 0 C0.66 0 1.32 0 2 0 C3.45220234 3.80495995 4.89441785 7.61353686 6.32739258 11.42578125 C6.81650597 12.72271959 7.3083594 14.01862796 7.80297852 15.31347656 C8.51253387 17.17241196 9.21150798 19.03537544 9.91015625 20.8984375 C10.33433838 22.01911621 10.75852051 23.13979492 11.19555664 24.29443359 C12 27 12 27 11 29 C7.6006782 22.8782125 5.00834985 16.59057392 2.6875 10 C2.28797119 8.86896851 2.28797119 8.86896851 1.88037109 7.71508789 C0 2.27213584 0 2.27213584 0 0 Z " fill="#494949" transform="translate(227,253)"/>
<path d="M0 0 C1.35183382 4.05550147 -0.1461017 6.45223158 -1.75 10.1875 C-2.31462983 11.54001932 -2.87843976 12.89288124 -3.44140625 14.24609375 C-3.71355957 14.89433105 -3.98571289 15.54256836 -4.26611328 16.21044922 C-5.14975048 18.36516003 -5.92651922 20.54932584 -6.6875 22.75 C-7.90493351 25.76459726 -8.69729225 26.89394223 -11 29 C-10.36095942 25.30460566 -9.33807939 22.00415463 -7.96875 18.515625 C-7.57042969 17.49855469 -7.17210937 16.48148437 -6.76171875 15.43359375 C-6.34535156 14.38300781 -5.92898437 13.33242188 -5.5 12.25 C-5.08363281 11.18394531 -4.66726562 10.11789062 -4.23828125 9.01953125 C-1.13448661 1.13448661 -1.13448661 1.13448661 0 0 Z " fill="#3E3E3E" transform="translate(71,267)"/>
<path d="M0 0 C3.67072956 4.06972191 5.43935269 8.05333993 7.25 13.125 C7.518125 13.84042969 7.78625 14.55585938 8.0625 15.29296875 C9.17061166 18.3176613 10 20.75443698 10 24 C9.34 24 8.68 24 8 24 C6.84798903 20.93978855 5.70450097 17.87645956 4.5625 14.8125 C4.23701172 13.94818359 3.91152344 13.08386719 3.57617188 12.19335938 C3.26357422 11.35224609 2.95097656 10.51113281 2.62890625 9.64453125 C2.34088135 8.87471924 2.05285645 8.10490723 1.75610352 7.31176758 C0.96498745 4.89294999 0.45097555 2.50262397 0 0 Z " fill="#343434" transform="translate(356,393)"/>
<path d="M0 0 C3.59483837 3.26820786 4.94425036 7.01229872 6.75 11.4375 C7.07871094 12.20126953 7.40742188 12.96503906 7.74609375 13.75195312 C8.05160156 14.49251953 8.35710937 15.23308594 8.671875 15.99609375 C8.9512793 16.66825928 9.23068359 17.3404248 9.51855469 18.03295898 C10.0878409 20.35889155 9.74864911 21.75311216 9 24 C9 23.01 9 22.02 9 21 C8.34 21 7.68 21 7 21 C6.01602415 18.4392555 5.03770033 15.87658508 4.0625 13.3125 C3.78470703 12.59126953 3.50691406 11.87003906 3.22070312 11.12695312 C1.82233426 7.43728107 0.61063996 3.91891718 0 0 Z " fill="#2C2C2C" transform="translate(260,155)"/>
<path d="M0 0 C1 2 1 2 -0.109375 5.44921875 C-0.64845533 6.86497179 -1.19571414 8.2776307 -1.75 9.6875 C-2.01554688 10.38294922 -2.28109375 11.07839844 -2.5546875 11.79492188 C-3.35306729 13.87032176 -4.17262502 15.9360055 -5 18 C-5.26490234 18.67498535 -5.52980469 19.3499707 -5.80273438 20.04541016 C-7.7646888 24.8823444 -7.7646888 24.8823444 -10 26 C-7.96377592 16.67215443 -4.19100278 8.50830976 0 0 Z " fill="#3E3E3E" transform="translate(131,123)"/>
<path d="M0 0 C4.21814817 3.9700218 7.61227103 8.30840284 11 13 C10.67 13.66 10.34 14.32 10 15 C9.52949219 14.37351562 9.05898438 13.74703125 8.57421875 13.1015625 C7.95160156 12.28429687 7.32898438 11.46703125 6.6875 10.625 C6.07261719 9.81289063 5.45773437 9.00078125 4.82421875 8.1640625 C3.00519317 5.80220611 3.00519317 5.80220611 0 4 C0 2.68 0 1.36 0 0 Z " fill="#3B3B3B" transform="translate(484,419)"/>
<path d="M0 0 C0.66 0 1.32 0 2 0 C3.49926962 2.09956889 4.85646023 4.1728609 6.1875 6.375 C6.56841797 6.97828125 6.94933594 7.5815625 7.34179688 8.203125 C8.29629694 9.76219952 9.15590022 11.37849474 10 13 C9.67 13.66 9.34 14.32 9 15 C7.86863414 13.44210317 6.74517679 11.87846143 5.625 10.3125 C4.99851562 9.44238281 4.37203125 8.57226562 3.7265625 7.67578125 C2.10584157 5.16403048 1.00141912 2.80700813 0 0 Z " fill="#393839" transform="translate(371,354)"/>
<path d="M0 0 C3.62351253 1.20783751 4.15215236 2.29653142 6.1875 5.4375 C6.71730469 6.24058594 7.24710937 7.04367187 7.79296875 7.87109375 C9 10 9 10 9 12 C5.03126566 10.67708855 4.70094963 9.08850262 2.8125 5.4375 C2.28269531 4.42558594 1.75289063 3.41367187 1.20703125 2.37109375 C0.80871094 1.58863281 0.41039062 0.80617188 0 0 Z " fill="#343435" transform="translate(440,359)"/>
<path d="M0 0 C4.8404451 1.41671564 8.78490561 3.27258598 13 6 C13.33 6.99 13.66 7.98 14 9 C10.82010194 7.46205865 7.78518026 5.743521 4.75 3.9375 C3.85796875 3.41027344 2.9659375 2.88304688 2.046875 2.33984375 C1.37140625 1.89769531 0.6959375 1.45554687 0 1 C0 0.67 0 0.34 0 0 Z " fill="#262626" transform="translate(354,106)"/>
<path d="M0 0 C0.66 0 1.32 0 2 0 C3.54296875 1.86328125 3.54296875 1.86328125 5.1875 4.3125 C5.73792969 5.11300781 6.28835938 5.91351563 6.85546875 6.73828125 C7.23316406 7.48464844 7.61085938 8.23101562 8 9 C7.67 9.99 7.34 10.98 7 12 C6.0165504 10.56542672 5.03839079 9.12722594 4.0625 7.6875 C3.51722656 6.88699219 2.97195313 6.08648437 2.41015625 5.26171875 C1 3 1 3 0 0 Z " fill="#434342" transform="translate(347,318)"/>
<path d="M0 0 C3.73884332 2.65654657 5.64978174 4.58110387 7 9 C6.34 9 5.68 9 5 9 C3.7109375 7.5390625 3.7109375 7.5390625 2.375 5.625 C1.92898438 4.99851562 1.48296875 4.37203125 1.0234375 3.7265625 C0 2 0 2 0 0 Z " fill="#333333" transform="translate(475,407)"/>
</svg>
